<svg xmlns="http://www.w3.org/2000/svg" viewBox="0 0 464.88 18.39" fill="white"><title>Asset 3</title><g id="Layer_2" data-name="Layer 2"><g id="Layer_1-2" data-name="Layer 1"><path d="M229.16,4.77C230,3,230.82,1.15,232.85,0c2.19,2.16,2.92,4.92,4.84,7.2.82,4.11-1.77,8.23-5.27,11.19-2.6-3.05-5.52-6.4-5.11-10.22C227.15,6.84,228.63,5.94,229.16,4.77Z"/><path d="M217.64,8.2c2.8-.13,6.27,4,8.78,4.94,2.33,1.19,3.13,3.38,4.39,5.19-2.89.06-6.25.2-8.5-1.46C220.67,15.37,218.61,10,217.64,8.2Z"/><path d="M238.68,13.14c2.53-1,4.86-5.09,7.68-4.93-1.54,2.22-2.27,8.84-5.71,9.67a21.35,21.35,0,0,1-6.29.44C235.51,16.48,236.34,14.32,238.68,13.14Z"/><path d="M74.59,9.67c1.25-1.77,3.7-1.18,5.56-1.33a4.64,4.64,0,0,1,0,8c-1.91-.17-4.45.75-5.6-1.31A15.49,15.49,0,0,1,74.59,9.67Z"/><path d="M161.46,10.63c1.51-2.14,4.94-3.51,6.85-1.08,2.85,2.13.57,7.21-2.83,6.88-1.82.32-2.8-1.4-4-2.38C161.47,12.9,161.46,11.76,161.46,10.63Z"/><path d="M296.86,8.48c2.94-1.12,6.41,1.58,5.64,4.73-.4,3.55-5.71,4.55-7.4,1.44C293.47,12.55,294.71,9.67,296.86,8.48Z"/><path d="M381.46,13.19c-1.24-4.54,6.43-7.1,8.11-2.85,1.39,2-.29,4.28-1.24,6.08C385.65,16.71,382,16.39,381.46,13.19Z"/><path d="M9.89,9.77c5.69-1.76,11.21,1,16.5,2.76,2.7,1.18,5.53-.22,8.32-.22C33.27,14.58,30.5,15.22,28.1,16c-5.94,1.46-11.86-.74-17.73-1.5-3.52-.61-6.89.9-10.37,1C2.52,12.51,6.33,11.13,9.89,9.77Z"/><path d="M41.36,13.05c6.22-1.28,12.19-5.27,18.76-3.34,4.07,1.5,8.65,3,11.4,6.53C67.14,15,62.57,13.46,58,14.88c-7.52,1.88-16.51,3-22.79-2.57C37.29,12.39,39.3,12.92,41.36,13.05Z"/><path d="M91.16,12.08c2.91-1.42,6-2.92,9.32-2.79,4.84-.4,9,2.44,13.63,3.45,2.52.8,5.06-.47,7.62-.43a18.69,18.69,0,0,1-13.27,4.11c-4.73-.2-9.25-1.92-14-2.11-3-.16-5.71,1.19-8.53,1.88C87,14.09,89.25,13.19,91.16,12.08Z"/><path d="M128.23,12.94c5.27-.55,9.81-4.38,15.28-3.63a23.2,23.2,0,0,1,14.39,6.82c-4.54-1.09-9.19-2.62-13.85-1.22-7.15,1.61-16,3.16-21.79-2.53C124.25,12.48,126.23,12.89,128.23,12.94Z"/><path d="M172.15,16c4.91-4.22,11.56-7.47,18.18-6.48,4.12,1,8,3.09,12.24,3.61,2-.23,4-.69,6.07-.76a18.63,18.63,0,0,1-13.19,4.1c-5.37,0-10.46-2.6-15.86-2C177.07,14.78,174.64,15.51,172.15,16Z"/><path d="M264.49,12.46c4.78-1.63,9.61-4.12,14.82-2.94,4.25,1.12,8.88,2.67,11.72,6.22-3.47-.47-6.88-1.91-10.43-1.27-6.56.94-13.54,3.51-20,.77-1.63-.71-3.66-1.19-4.46-3C258.91,12.37,261.77,13.6,264.49,12.46Z"/><path d="M310.72,12.59c3.35-1.67,6.9-3.47,10.76-3.3,4.52-.12,8.48,2.41,12.79,3.38,2.44.72,4.94-.29,7.42-.33-1.38,2.31-4.23,2.81-6.58,3.62-6.91,1.65-13.74-1.34-20.62-1.65-2.92-.15-5.61,1.17-8.38,1.86C306.87,14.2,309.05,13.58,310.72,12.59Z"/><path d="M350.53,12.47c4-.93,7.72-3.26,12-3.18,5.66-.21,11.17,2.5,15.27,6.28-3.41-.31-6.73-1.68-10.18-1.14-5.62.77-11.21,2.7-16.94,1.81a19.41,19.41,0,0,1-8.37-3.89C345,12.35,347.81,13.32,350.53,12.47Z"/><path d="M393,16.26c3.18-4.43,9.14-6.57,14.45-7,6.4-.76,11.87,4.95,18.25,3.36l3-.3c-4.53,4-11.06,4.8-16.81,3.61-4.09-.62-8.14-2-12.32-1.59A59.5,59.5,0,0,0,393,16.26Z"/><path d="M443.58,10.46c7.39-3.18,15.82.53,21.3,5.62-3.74-.74-7.44-2.29-11.31-1.62-6.06,1-12.34,3.23-18.43,1.23-2.08-.85-4.65-1.28-5.86-3.37C434.17,13.79,439,12.28,443.58,10.46Z"/></g></g></svg>